<svg xmlns="http://www.w3.org/2000/svg" viewBox="0 0 512 512"><path d="M358.092 21.429C186.917-52.713.221 75.26.312 255.946.007 436.161 184.088 560.748 351.703 493.471c211.062-85.246 213.414-381.856 6.389-472.042z" fill="#f4d44e"/><path d="M172.625 452.001C11.542 358.999 1.761 131.261 150.743 23.774c-47.165 21.222-88.35 56.909-116.184 105.12-70.521 122.145-28.67 278.331 93.474 348.852 89.889 51.897 198.209 42.931 277.259-14.101-72.33 32.543-158.732 31.042-232.667-11.644z" fill="#e8c842"/><g fill="#656566"><path d="M369.787 259.946c-15.778-9.206-33.548-11.905-50.035-7.603-4.126 1.083-8.346-1.396-9.423-5.523s1.395-8.346 5.522-9.423c20.472-5.343 42.391-2.073 61.721 9.208a7.723 7.723 0 0 1 2.778 10.563c-2.142 3.672-6.871 4.935-10.563 2.778zM132.022 257.168a7.722 7.722 0 0 1 2.778-10.563c19.33-11.28 41.249-14.55 61.721-9.208a7.722 7.722 0 0 1 5.522 9.423 7.722 7.722 0 0 1-9.423 5.523c-16.489-4.302-34.258-1.604-50.035 7.603-3.667 2.14-8.403.923-10.563-2.778zM200.582 388.564a7.725 7.725 0 0 1-3.835-10.228c23.484-51.675 96.189-50.155 118.885.013a7.723 7.723 0 0 1-3.854 10.22c-3.884 1.761-8.462.034-10.221-3.854-17.63-38.968-73.059-38.883-90.748.013a7.723 7.723 0 0 1-10.227 3.836z"/></g><path d="M87.135 168.696c41.791 0 69.819-42.922 53.013-81.186L97.592 5.844c-3.908-7.5-14.642-7.493-18.541.013L35.526 89.658c-16.362 37.251 10.924 79.038 51.609 79.038z" fill="#9cd7f2"/><path d="M74.358 104.26l15.795-93.101c.615-3.626 2.896-6.294 5.77-7.667C91.22-1.541 82.485-.757 79.05 5.856L35.526 89.658c-16.362 37.251 10.924 79.037 51.61 79.037 8.936 0 17.238-1.968 24.612-5.426-23.285-8.251-40.226-31.547-37.39-59.009z" fill="#71c5db"/></svg>